<mxfile host="app.diagrams.net" agent="Mozilla/5.0 (Macintosh; Intel Mac OS X 10_15_7) AppleWebKit/537.36 (KHTML, like Gecko) Chrome/138.0.0.0 Safari/537.36" version="27.2.0">
  <diagram name="第 1 页" id="SprRjtV2hqrqdGFA_uy5">
    <mxGraphModel dx="818" dy="563" grid="1" gridSize="10" guides="1" tooltips="1" connect="1" arrows="1" fold="1" page="1" pageScale="1" pageWidth="827" pageHeight="1169" math="0" shadow="0">
      <root>
        <mxCell id="0" />
        <mxCell id="1" parent="0" />
        <mxCell id="JphNF5TFa-eOMuYcdrsa-1" value="impression" style="rounded=1;whiteSpace=wrap;html=1;hachureGap=4;fontFamily=Comic Sans MS;" vertex="1" parent="1">
          <mxGeometry x="110" y="130" width="120" height="60" as="geometry" />
        </mxCell>
        <mxCell id="JphNF5TFa-eOMuYcdrsa-2" value="click" style="rounded=1;whiteSpace=wrap;html=1;hachureGap=4;fontFamily=Comic Sans MS;" vertex="1" parent="1">
          <mxGeometry x="280" y="130" width="120" height="60" as="geometry" />
        </mxCell>
        <mxCell id="JphNF5TFa-eOMuYcdrsa-3" value="conversion" style="rounded=1;whiteSpace=wrap;html=1;hachureGap=4;fontFamily=Comic Sans MS;" vertex="1" parent="1">
          <mxGeometry x="450" y="130" width="120" height="60" as="geometry" />
        </mxCell>
        <mxCell id="JphNF5TFa-eOMuYcdrsa-4" value="deep conversion" style="rounded=1;whiteSpace=wrap;html=1;hachureGap=4;fontFamily=Comic Sans MS;" vertex="1" parent="1">
          <mxGeometry x="620" y="130" width="120" height="60" as="geometry" />
        </mxCell>
        <mxCell id="JphNF5TFa-eOMuYcdrsa-5" value="竞价点" style="rounded=1;whiteSpace=wrap;html=1;fontFamily=Comic Sans MS;" vertex="1" parent="1">
          <mxGeometry x="110" y="221" width="60" height="30" as="geometry" />
        </mxCell>
        <mxCell id="JphNF5TFa-eOMuYcdrsa-6" value="计费点" style="rounded=1;whiteSpace=wrap;html=1;fontFamily=Comic Sans MS;" vertex="1" parent="1">
          <mxGeometry x="170" y="221" width="60" height="30" as="geometry" />
        </mxCell>
        <mxCell id="JphNF5TFa-eOMuYcdrsa-7" value="" style="endArrow=classic;html=1;rounded=0;exitX=0.5;exitY=0;exitDx=0;exitDy=0;entryX=0.25;entryY=1;entryDx=0;entryDy=0;fontFamily=Comic Sans MS;" edge="1" parent="1" source="JphNF5TFa-eOMuYcdrsa-5" target="JphNF5TFa-eOMuYcdrsa-1">
          <mxGeometry width="50" height="50" relative="1" as="geometry">
            <mxPoint x="190" y="310" as="sourcePoint" />
            <mxPoint x="240" y="260" as="targetPoint" />
          </mxGeometry>
        </mxCell>
        <mxCell id="JphNF5TFa-eOMuYcdrsa-8" value="" style="endArrow=classic;html=1;rounded=0;exitX=0.5;exitY=0;exitDx=0;exitDy=0;entryX=0.75;entryY=1;entryDx=0;entryDy=0;fontFamily=Comic Sans MS;" edge="1" parent="1" source="JphNF5TFa-eOMuYcdrsa-6" target="JphNF5TFa-eOMuYcdrsa-1">
          <mxGeometry width="50" height="50" relative="1" as="geometry">
            <mxPoint x="280" y="322" as="sourcePoint" />
            <mxPoint x="280" y="291" as="targetPoint" />
          </mxGeometry>
        </mxCell>
        <mxCell id="JphNF5TFa-eOMuYcdrsa-9" value="出价点" style="rounded=1;whiteSpace=wrap;html=1;fontFamily=Comic Sans MS;" vertex="1" parent="1">
          <mxGeometry x="480" y="221" width="60" height="30" as="geometry" />
        </mxCell>
        <mxCell id="JphNF5TFa-eOMuYcdrsa-10" value="" style="endArrow=classic;html=1;rounded=0;exitX=0.5;exitY=0;exitDx=0;exitDy=0;entryX=0.75;entryY=1;entryDx=0;entryDy=0;fontFamily=Comic Sans MS;" edge="1" parent="1" source="JphNF5TFa-eOMuYcdrsa-9">
          <mxGeometry width="50" height="50" relative="1" as="geometry">
            <mxPoint x="590" y="322" as="sourcePoint" />
            <mxPoint x="510" y="190" as="targetPoint" />
          </mxGeometry>
        </mxCell>
        <mxCell id="JphNF5TFa-eOMuYcdrsa-11" value="考核点" style="rounded=1;whiteSpace=wrap;html=1;fontFamily=Comic Sans MS;" vertex="1" parent="1">
          <mxGeometry x="650" y="221" width="60" height="30" as="geometry" />
        </mxCell>
        <mxCell id="JphNF5TFa-eOMuYcdrsa-12" value="" style="endArrow=classic;html=1;rounded=0;exitX=0.5;exitY=0;exitDx=0;exitDy=0;entryX=0.75;entryY=1;entryDx=0;entryDy=0;fontFamily=Comic Sans MS;" edge="1" parent="1" source="JphNF5TFa-eOMuYcdrsa-11">
          <mxGeometry width="50" height="50" relative="1" as="geometry">
            <mxPoint x="760" y="322" as="sourcePoint" />
            <mxPoint x="680" y="190" as="targetPoint" />
          </mxGeometry>
        </mxCell>
        <mxCell id="JphNF5TFa-eOMuYcdrsa-13" value="" style="endArrow=classic;html=1;rounded=0;entryX=0;entryY=0.5;entryDx=0;entryDy=0;fontFamily=Comic Sans MS;" edge="1" parent="1" target="JphNF5TFa-eOMuYcdrsa-2">
          <mxGeometry width="50" height="50" relative="1" as="geometry">
            <mxPoint x="230" y="160" as="sourcePoint" />
            <mxPoint x="280" y="110" as="targetPoint" />
          </mxGeometry>
        </mxCell>
        <mxCell id="JphNF5TFa-eOMuYcdrsa-14" value="" style="endArrow=classic;html=1;rounded=0;entryX=0;entryY=0.5;entryDx=0;entryDy=0;fontFamily=Comic Sans MS;" edge="1" parent="1">
          <mxGeometry width="50" height="50" relative="1" as="geometry">
            <mxPoint x="400" y="159.5" as="sourcePoint" />
            <mxPoint x="450" y="159.5" as="targetPoint" />
          </mxGeometry>
        </mxCell>
        <mxCell id="JphNF5TFa-eOMuYcdrsa-15" value="" style="endArrow=classic;html=1;rounded=0;entryX=0;entryY=0.5;entryDx=0;entryDy=0;fontFamily=Comic Sans MS;" edge="1" parent="1">
          <mxGeometry width="50" height="50" relative="1" as="geometry">
            <mxPoint x="570" y="159.5" as="sourcePoint" />
            <mxPoint x="620" y="159.5" as="targetPoint" />
          </mxGeometry>
        </mxCell>
        <mxCell id="JphNF5TFa-eOMuYcdrsa-16" value="OCPM广告" style="text;html=1;align=center;verticalAlign=middle;whiteSpace=wrap;rounded=0;fontFamily=Comic Sans MS;" vertex="1" parent="1">
          <mxGeometry x="110" y="80" width="80" height="30" as="geometry" />
        </mxCell>
        <mxCell id="JphNF5TFa-eOMuYcdrsa-17" value="QCPM广告" style="text;html=1;align=center;verticalAlign=middle;whiteSpace=wrap;rounded=0;fontFamily=Comic Sans MS;" vertex="1" parent="1">
          <mxGeometry x="110" y="280" width="80" height="30" as="geometry" />
        </mxCell>
        <mxCell id="JphNF5TFa-eOMuYcdrsa-18" value="impression" style="rounded=1;whiteSpace=wrap;html=1;hachureGap=4;fontFamily=Comic Sans MS;" vertex="1" parent="1">
          <mxGeometry x="110" y="320" width="120" height="60" as="geometry" />
        </mxCell>
        <mxCell id="JphNF5TFa-eOMuYcdrsa-19" value="click" style="rounded=1;whiteSpace=wrap;html=1;hachureGap=4;fontFamily=Comic Sans MS;" vertex="1" parent="1">
          <mxGeometry x="280" y="320" width="120" height="60" as="geometry" />
        </mxCell>
        <mxCell id="JphNF5TFa-eOMuYcdrsa-20" value="conversion" style="rounded=1;whiteSpace=wrap;html=1;hachureGap=4;fontFamily=Comic Sans MS;" vertex="1" parent="1">
          <mxGeometry x="450" y="320" width="120" height="60" as="geometry" />
        </mxCell>
        <mxCell id="JphNF5TFa-eOMuYcdrsa-21" value="deep conversion" style="rounded=1;whiteSpace=wrap;html=1;hachureGap=4;fontFamily=Comic Sans MS;" vertex="1" parent="1">
          <mxGeometry x="620" y="320" width="120" height="60" as="geometry" />
        </mxCell>
        <mxCell id="JphNF5TFa-eOMuYcdrsa-22" value="竞价点" style="rounded=1;whiteSpace=wrap;html=1;fontFamily=Comic Sans MS;" vertex="1" parent="1">
          <mxGeometry x="110" y="411" width="60" height="30" as="geometry" />
        </mxCell>
        <mxCell id="JphNF5TFa-eOMuYcdrsa-23" value="计费点" style="rounded=1;whiteSpace=wrap;html=1;fontFamily=Comic Sans MS;" vertex="1" parent="1">
          <mxGeometry x="170" y="411" width="60" height="30" as="geometry" />
        </mxCell>
        <mxCell id="JphNF5TFa-eOMuYcdrsa-24" value="" style="endArrow=classic;html=1;rounded=0;exitX=0.5;exitY=0;exitDx=0;exitDy=0;entryX=0.25;entryY=1;entryDx=0;entryDy=0;fontFamily=Comic Sans MS;" edge="1" parent="1" source="JphNF5TFa-eOMuYcdrsa-22" target="JphNF5TFa-eOMuYcdrsa-18">
          <mxGeometry width="50" height="50" relative="1" as="geometry">
            <mxPoint x="190" y="500" as="sourcePoint" />
            <mxPoint x="240" y="450" as="targetPoint" />
          </mxGeometry>
        </mxCell>
        <mxCell id="JphNF5TFa-eOMuYcdrsa-25" value="" style="endArrow=classic;html=1;rounded=0;exitX=0.5;exitY=0;exitDx=0;exitDy=0;entryX=0.75;entryY=1;entryDx=0;entryDy=0;fontFamily=Comic Sans MS;" edge="1" parent="1" source="JphNF5TFa-eOMuYcdrsa-23" target="JphNF5TFa-eOMuYcdrsa-18">
          <mxGeometry width="50" height="50" relative="1" as="geometry">
            <mxPoint x="280" y="512" as="sourcePoint" />
            <mxPoint x="280" y="481" as="targetPoint" />
          </mxGeometry>
        </mxCell>
        <mxCell id="JphNF5TFa-eOMuYcdrsa-26" value="出价点" style="rounded=1;whiteSpace=wrap;html=1;fontFamily=Comic Sans MS;" vertex="1" parent="1">
          <mxGeometry x="480" y="411" width="60" height="30" as="geometry" />
        </mxCell>
        <mxCell id="JphNF5TFa-eOMuYcdrsa-27" value="" style="endArrow=classic;html=1;rounded=0;exitX=0.5;exitY=0;exitDx=0;exitDy=0;entryX=0.75;entryY=1;entryDx=0;entryDy=0;fontFamily=Comic Sans MS;" edge="1" parent="1" source="JphNF5TFa-eOMuYcdrsa-26">
          <mxGeometry width="50" height="50" relative="1" as="geometry">
            <mxPoint x="590" y="512" as="sourcePoint" />
            <mxPoint x="510" y="380" as="targetPoint" />
          </mxGeometry>
        </mxCell>
        <mxCell id="JphNF5TFa-eOMuYcdrsa-28" value="考核点" style="rounded=1;whiteSpace=wrap;html=1;fontFamily=Comic Sans MS;" vertex="1" parent="1">
          <mxGeometry x="650" y="411" width="60" height="30" as="geometry" />
        </mxCell>
        <mxCell id="JphNF5TFa-eOMuYcdrsa-29" value="" style="endArrow=classic;html=1;rounded=0;exitX=0.5;exitY=0;exitDx=0;exitDy=0;entryX=0.75;entryY=1;entryDx=0;entryDy=0;fontFamily=Comic Sans MS;" edge="1" parent="1" source="JphNF5TFa-eOMuYcdrsa-28">
          <mxGeometry width="50" height="50" relative="1" as="geometry">
            <mxPoint x="760" y="512" as="sourcePoint" />
            <mxPoint x="680" y="380" as="targetPoint" />
          </mxGeometry>
        </mxCell>
        <mxCell id="JphNF5TFa-eOMuYcdrsa-30" value="" style="endArrow=classic;html=1;rounded=0;entryX=0;entryY=0.5;entryDx=0;entryDy=0;fontFamily=Comic Sans MS;" edge="1" parent="1" target="JphNF5TFa-eOMuYcdrsa-19">
          <mxGeometry width="50" height="50" relative="1" as="geometry">
            <mxPoint x="230" y="350" as="sourcePoint" />
            <mxPoint x="280" y="300" as="targetPoint" />
          </mxGeometry>
        </mxCell>
        <mxCell id="JphNF5TFa-eOMuYcdrsa-31" value="" style="endArrow=classic;html=1;rounded=0;entryX=0;entryY=0.5;entryDx=0;entryDy=0;fontFamily=Comic Sans MS;" edge="1" parent="1">
          <mxGeometry width="50" height="50" relative="1" as="geometry">
            <mxPoint x="400" y="349.5" as="sourcePoint" />
            <mxPoint x="450" y="349.5" as="targetPoint" />
          </mxGeometry>
        </mxCell>
        <mxCell id="JphNF5TFa-eOMuYcdrsa-32" value="" style="endArrow=classic;html=1;rounded=0;entryX=0;entryY=0.5;entryDx=0;entryDy=0;fontFamily=Comic Sans MS;" edge="1" parent="1">
          <mxGeometry width="50" height="50" relative="1" as="geometry">
            <mxPoint x="570" y="349.5" as="sourcePoint" />
            <mxPoint x="620" y="349.5" as="targetPoint" />
          </mxGeometry>
        </mxCell>
        <mxCell id="JphNF5TFa-eOMuYcdrsa-33" value="&lt;font style=&quot;font-size: 10px;&quot;&gt;预估涨幅决策最优券金&lt;/font&gt;" style="rounded=1;whiteSpace=wrap;html=1;fontColor=#0000FF;fontFamily=Comic Sans MS;" vertex="1" parent="1">
          <mxGeometry x="110" y="472" width="60" height="30" as="geometry" />
        </mxCell>
        <mxCell id="JphNF5TFa-eOMuYcdrsa-34" value="&lt;font style=&quot;color: rgb(18, 144, 68);&quot;&gt;加收券金&lt;/font&gt;" style="rounded=1;whiteSpace=wrap;html=1;fontFamily=Comic Sans MS;fontSize=10;" vertex="1" parent="1">
          <mxGeometry x="170" y="472" width="60" height="30" as="geometry" />
        </mxCell>
        <mxCell id="JphNF5TFa-eOMuYcdrsa-39" value="" style="endArrow=classic;html=1;rounded=0;exitX=0.5;exitY=1;exitDx=0;exitDy=0;entryX=0.5;entryY=0;entryDx=0;entryDy=0;fontFamily=Comic Sans MS;" edge="1" parent="1" source="JphNF5TFa-eOMuYcdrsa-22" target="JphNF5TFa-eOMuYcdrsa-33">
          <mxGeometry width="50" height="50" relative="1" as="geometry">
            <mxPoint x="220" y="580" as="sourcePoint" />
            <mxPoint x="270" y="530" as="targetPoint" />
          </mxGeometry>
        </mxCell>
        <mxCell id="JphNF5TFa-eOMuYcdrsa-40" value="" style="endArrow=classic;html=1;rounded=0;exitX=0.5;exitY=1;exitDx=0;exitDy=0;entryX=0.5;entryY=0;entryDx=0;entryDy=0;fontFamily=Comic Sans MS;" edge="1" parent="1" source="JphNF5TFa-eOMuYcdrsa-23" target="JphNF5TFa-eOMuYcdrsa-34">
          <mxGeometry width="50" height="50" relative="1" as="geometry">
            <mxPoint x="286" y="450" as="sourcePoint" />
            <mxPoint x="286" y="481" as="targetPoint" />
          </mxGeometry>
        </mxCell>
        <mxCell id="JphNF5TFa-eOMuYcdrsa-41" value="&lt;font style=&quot;font-size: 10px;&quot;&gt;告知奖励点&lt;/font&gt;" style="rounded=1;whiteSpace=wrap;html=1;fontColor=#0000FF;fontFamily=Comic Sans MS;" vertex="1" parent="1">
          <mxGeometry x="390" y="490" width="60" height="30" as="geometry" />
        </mxCell>
        <mxCell id="JphNF5TFa-eOMuYcdrsa-43" value="" style="endArrow=classic;html=1;rounded=0;exitX=0.5;exitY=0;exitDx=0;exitDy=0;fontFamily=Comic Sans MS;dashed=1;" edge="1" parent="1" source="JphNF5TFa-eOMuYcdrsa-41">
          <mxGeometry width="50" height="50" relative="1" as="geometry">
            <mxPoint x="420" y="480" as="sourcePoint" />
            <mxPoint x="420" y="350" as="targetPoint" />
          </mxGeometry>
        </mxCell>
        <mxCell id="JphNF5TFa-eOMuYcdrsa-44" value="" style="endArrow=none;html=1;rounded=0;exitX=0.25;exitY=0;exitDx=0;exitDy=0;fontFamily=Comic Sans MS;curved=0;dashed=1;" edge="1" parent="1" source="JphNF5TFa-eOMuYcdrsa-41">
          <mxGeometry width="50" height="50" relative="1" as="geometry">
            <mxPoint x="310" y="500" as="sourcePoint" />
            <mxPoint x="405" y="460" as="targetPoint" />
          </mxGeometry>
        </mxCell>
        <mxCell id="JphNF5TFa-eOMuYcdrsa-45" value="" style="endArrow=none;html=1;rounded=0;exitX=0.25;exitY=0;exitDx=0;exitDy=0;fontFamily=Comic Sans MS;dashed=1;" edge="1" parent="1">
          <mxGeometry width="50" height="50" relative="1" as="geometry">
            <mxPoint x="435" y="490" as="sourcePoint" />
            <mxPoint x="435" y="460" as="targetPoint" />
          </mxGeometry>
        </mxCell>
        <mxCell id="JphNF5TFa-eOMuYcdrsa-46" value="" style="endArrow=none;html=1;rounded=0;fontFamily=Comic Sans MS;dashed=1;" edge="1" parent="1">
          <mxGeometry width="50" height="50" relative="1" as="geometry">
            <mxPoint x="250" y="460" as="sourcePoint" />
            <mxPoint x="405" y="460" as="targetPoint" />
          </mxGeometry>
        </mxCell>
        <mxCell id="JphNF5TFa-eOMuYcdrsa-47" value="" style="endArrow=none;html=1;rounded=0;fontFamily=Comic Sans MS;dashed=1;" edge="1" parent="1">
          <mxGeometry width="50" height="50" relative="1" as="geometry">
            <mxPoint x="434.5" y="460" as="sourcePoint" />
            <mxPoint x="589.5" y="460" as="targetPoint" />
          </mxGeometry>
        </mxCell>
        <mxCell id="JphNF5TFa-eOMuYcdrsa-48" value="" style="endArrow=classic;html=1;rounded=0;fontFamily=Comic Sans MS;dashed=1;" edge="1" parent="1">
          <mxGeometry width="50" height="50" relative="1" as="geometry">
            <mxPoint x="250" y="460" as="sourcePoint" />
            <mxPoint x="250" y="350" as="targetPoint" />
          </mxGeometry>
        </mxCell>
        <mxCell id="JphNF5TFa-eOMuYcdrsa-49" value="" style="endArrow=classic;html=1;rounded=0;fontFamily=Comic Sans MS;dashed=1;" edge="1" parent="1">
          <mxGeometry width="50" height="50" relative="1" as="geometry">
            <mxPoint x="590" y="460" as="sourcePoint" />
            <mxPoint x="590" y="350" as="targetPoint" />
          </mxGeometry>
        </mxCell>
        <mxCell id="JphNF5TFa-eOMuYcdrsa-50" value="&lt;font style=&quot;font-size: 10px;&quot;&gt;支付奖励点&lt;/font&gt;" style="rounded=1;whiteSpace=wrap;html=1;fontColor=#0000FF;fontFamily=Comic Sans MS;" vertex="1" parent="1">
          <mxGeometry x="570" y="490" width="60" height="30" as="geometry" />
        </mxCell>
        <mxCell id="JphNF5TFa-eOMuYcdrsa-51" value="" style="endArrow=classic;html=1;rounded=0;fontFamily=Comic Sans MS;exitX=0.5;exitY=0;exitDx=0;exitDy=0;" edge="1" parent="1">
          <mxGeometry width="50" height="50" relative="1" as="geometry">
            <mxPoint x="600" y="490" as="sourcePoint" />
            <mxPoint x="600" y="350" as="targetPoint" />
          </mxGeometry>
        </mxCell>
        <mxCell id="JphNF5TFa-eOMuYcdrsa-52" value="&lt;font style=&quot;color: rgb(18, 144, 68);&quot;&gt;支出券金&lt;/font&gt;" style="rounded=1;whiteSpace=wrap;html=1;fontFamily=Comic Sans MS;fontSize=10;" vertex="1" parent="1">
          <mxGeometry x="570" y="540" width="60" height="30" as="geometry" />
        </mxCell>
        <mxCell id="JphNF5TFa-eOMuYcdrsa-53" value="" style="endArrow=classic;html=1;rounded=0;exitX=0.5;exitY=0;exitDx=0;exitDy=0;entryX=0.5;entryY=1;entryDx=0;entryDy=0;fontFamily=Comic Sans MS;" edge="1" parent="1" source="JphNF5TFa-eOMuYcdrsa-52" target="JphNF5TFa-eOMuYcdrsa-50">
          <mxGeometry width="50" height="50" relative="1" as="geometry">
            <mxPoint x="300" y="451" as="sourcePoint" />
            <mxPoint x="300" y="420" as="targetPoint" />
          </mxGeometry>
        </mxCell>
      </root>
    </mxGraphModel>
  </diagram>
</mxfile>
